<svg xmlns="http://www.w3.org/2000/svg" xmlns:xlink="http://www.w3.org/1999/xlink" width="789" height="1188" viewBox="0 0 789 1188">
  <defs>
    <path id="level1-a" d="M763.693176,401.859924 L763.693176,726.979553 L405.553162,726.979553 L405.553162,401.859924 L763.693176,401.859924 Z M763.693176,8.15994453 L763.693176,394.239929 L405.553162,394.239929 L405.553162,304.704926 L397.933167,304.704926 L397.933167,401.859924 L397.933167,734.599548 L497.690063,734.599548 L497.690063,831.119568 L84.2433319,831.119568 L84.2433319,704.11969 L122.343338,704.11969 L122.343338,696.499695 L8.04332161,696.499695 L8.04332161,67.8499451 L397.933167,67.8499451 L397.933167,8.15994453 L763.693176,8.15994453 Z M321.177551,859.105286 L321.177551,1036.90527 L289.427551,1036.90527 L289.427551,1105.48523 L158.617554,1105.48523 L158.617554,1036.90527 L44.3175545,1036.90527 L44.3175545,954.355286 L153.537552,954.355286 L153.537552,859.105286 L321.177551,859.105286 Z M390.313171,0.539945126 L390.313171,60.2299461 L0.423322201,60.2299461 L0.423322201,704.11969 L76.6233368,704.11969 L76.6233368,838.739563 L321.177551,838.739563 L321.177551,851.485291 L145.917557,851.485291 L145.917557,946.735291 L36.6975517,946.735291 L36.6975517,1044.52539 L150.997559,1044.52539 L150.997559,1113.10535 L297.047546,1113.10535 L297.047546,1044.52539 L321.177551,1044.52539 L321.177551,1185.44958 L328.797546,1185.44958 L328.797546,838.739563 L505.310059,838.739563 L505.310059,734.599548 L771.313171,734.599548 L771.313171,401.859924 L771.313171,0.539945126 L390.313171,0.539945126 Z"/>
  </defs>
  <g fill="none" fill-rule="evenodd" transform="translate(1 1)">
    <g transform="translate(15.25 .19)">
      <mask id="level1-b" fill="#fff">
        <use xlink:href="#level1-a"/>
      </mask>
    </g>
    <path stroke="#000" stroke-width="1.5" d="M763.693176,401.859924 L763.693176,726.979553 L405.553162,726.979553 L405.553162,401.859924 L763.693176,401.859924 Z M763.693176,8.15994453 L763.693176,394.239929 L405.553162,394.239929 L405.553162,304.704926 L397.933167,304.704926 L397.933167,401.859924 L397.933167,734.599548 L497.690063,734.599548 L497.690063,831.119568 L84.2433319,831.119568 L84.2433319,704.11969 L122.343338,704.11969 L122.343338,696.499695 L8.04332161,696.499695 L8.04332161,67.8499451 L397.933167,67.8499451 L397.933167,8.15994453 L763.693176,8.15994453 Z M321.177551,859.105286 L321.177551,1036.90527 L289.427551,1036.90527 L289.427551,1105.48523 L158.617554,1105.48523 L158.617554,1036.90527 L44.3175545,1036.90527 L44.3175545,954.355286 L153.537552,954.355286 L153.537552,859.105286 L321.177551,859.105286 Z M390.313171,0.539945126 L390.313171,60.2299461 L0.423322201,60.2299461 L0.423322201,704.11969 L76.6233368,704.11969 L76.6233368,838.739563 L321.177551,838.739563 L321.177551,851.485291 L145.917557,851.485291 L145.917557,946.735291 L36.6975517,946.735291 L36.6975517,1044.52539 L150.997559,1044.52539 L150.997559,1113.10535 L297.047546,1113.10535 L297.047546,1044.52539 L321.177551,1044.52539 L321.177551,1185.44958 L328.797546,1185.44958 L328.797546,838.739563 L505.310059,838.739563 L505.310059,734.599548 L771.313171,734.599548 L771.313171,401.859924 L771.313171,0.539945126 L390.313171,0.539945126 Z" transform="translate(15.25 .19)"/>
    <polygon fill="#FFF" fill-rule="nonzero" points=".878 .24 .878 7.86 81.206 7.86 81.206 .24" transform="translate(599.25 394.19)"/>
    <polygon stroke="#000" points=".878 .24 .878 7.86 81.206 7.86 81.206 .24" transform="translate(599.25 394.19)"/>
    <polygon fill="#FFF" fill-rule="nonzero" points=".878 .24 81.206 .24 81.206 7.86 .878 7.86" transform="translate(599.25 394.19)"/>
    <polygon stroke="#000" points=".878 .24 81.206 .24 81.206 7.86 .878 7.86" transform="translate(599.25 394.19)"/>
    <polygon fill="#FFF" fill-rule="nonzero" points=".7 .98 .7 8.6 77.535 8.6 77.535 .98" transform="translate(426.25 726.19)"/>
    <polygon stroke="#000" points=".7 .98 .7 8.6 77.535 8.6 77.535 .98" transform="translate(426.25 726.19)"/>
    <polygon fill="#FFF" fill-rule="nonzero" points="77.535 8.6 .7 8.6 .7 .979 77.535 .979" transform="translate(426.25 726.19)"/>
    <polygon stroke="#000" points="77.535 8.6 .7 8.6 .7 .979 77.535 .979" transform="translate(426.25 726.19)"/>
    <polygon fill="#FFF" fill-rule="nonzero" points=".69 .72 .69 92.16 .69 92.16 8.31 92.16 8.31 92.16 8.31 .72 8.31 .72 .69 .72" transform="translate(512.25 736.19)"/>
    <polygon stroke="#000" points=".69 .72 .69 92.16 .69 92.16 8.31 92.16 8.31 92.16 8.31 .72 8.31 .72 .69 .72" transform="translate(512.25 736.19)"/>
    <path stroke="#000" d="M81.690033,82.2202759 C36.678833,82.2202759 0.190032959,45.7315063 0.190032959,0.720275879 L81.690033,0.720275879 L81.690033,82.2202759 Z" transform="translate(431.25 741.19)"/>
    <polygon fill="#FFF" fill-rule="nonzero" points="8.31 .72 8.31 92.16 .69 92.16 .69 .72" transform="translate(512.25 736.19)"/>
    <polygon stroke="#000" points="8.31 .72 8.31 92.16 .69 92.16 .69 .72" transform="translate(512.25 736.19)"/>
    <polygon fill="#FFF" fill-rule="nonzero" points=".025 .12 .025 7.74 91.465 7.74 91.465 .12" transform="translate(343.25 831.19)"/>
    <polygon stroke="#000" points=".025 .12 .025 7.74 91.465 7.74 91.465 .12" transform="translate(343.25 831.19)"/>
    <polygon fill="#FFF" fill-rule="nonzero" points="91.465 7.74 .025 7.74 .025 .119 91.465 .119" transform="translate(343.25 831.19)"/>
    <polygon stroke="#000" points="91.465 7.74 .025 7.74 .025 .119 91.465 .119" transform="translate(343.25 831.19)"/>
    <polygon fill="#FFF" fill-rule="nonzero" points=".623 .57 .623 102.17 8.243 102.17 8.243 .57" transform="translate(91.25 719.19)"/>
    <polygon stroke="#000" points=".623 .57 .623 102.17 8.243 102.17 8.243 .57" transform="translate(91.25 719.19)"/>
    <path stroke="#000" d="M91.6231308,92.1652832 C41.0392838,92.1652832 0.0329866409,51.1589966 0.0329866409,0.575134277 L91.6231308,0.575134277 L91.6231308,92.1652832 Z" transform="translate(.25 724.19)"/>
    <polygon fill="#FFF" fill-rule="nonzero" points="8.244 .57 8.244 102.17 .623 102.17 .623 .57" transform="translate(91.25 719.19)"/>
    <polygon stroke="#000" points="8.244 .57 8.244 102.17 .623 102.17 .623 .57" transform="translate(91.25 719.19)"/>
    <polygon fill="#FFF" fill-rule="nonzero" points=".178 .783 .178 92.223 .178 92.223 7.798 92.223 7.798 92.223 7.798 .783 7.798 .783 .178 .783" transform="translate(336.25 894.19)"/>
    <polygon stroke="#000" points=".178 .783 .178 92.223 .178 92.223 7.798 92.223 7.798 92.223 7.798 .783 7.798 .783 .178 .783" transform="translate(336.25 894.19)"/>
    <path stroke="#000" d="M82.1775208,82.2827759 C37.1663208,82.2827759 0.677536011,45.7940063 0.677536011,0.782775879 L82.1775208,0.782775879 L82.1775208,82.2827759 Z" transform="translate(254.25 899.19)"/>
    <polygon fill="#FFF" fill-rule="nonzero" points="7.798 .783 7.798 92.223 .178 92.223 .178 .783" transform="translate(336.25 894.19)"/>
    <polygon stroke="#000" points="7.798 .783 7.798 92.223 .178 92.223 .178 .783" transform="translate(336.25 894.19)"/>
    <polygon fill="#FFF" fill-rule="nonzero" points=".487 .23 .487 7.85 295.127 7.85 295.127 .23" transform="translate(61.25 60.19)"/>
    <polygon stroke="#000" points=".487 .23 .487 7.85 295.127 7.85 295.127 .23" transform="translate(61.25 60.19)"/>
    <polygon fill="#FFF" fill-rule="nonzero" points=".487 .23 295.127 .23 295.127 7.85 .487 7.85" transform="translate(61.25 60.19)"/>
    <polygon stroke="#000" points=".487 .23 295.127 .23 295.127 7.85 .487 7.85" transform="translate(61.25 60.19)"/>
    <polygon fill="#FFF" fill-rule="nonzero" points=".988 .54 .988 8.16 150.848 8.16 150.848 .54" transform="translate(524.25 .19)"/>
    <polygon stroke="#000" points=".988 .54 .988 8.16 150.848 8.16 150.848 .54" transform="translate(524.25 .19)"/>
    <polygon fill="#FFF" fill-rule="nonzero" points="150.848 8.16 .988 8.16 .988 .54 150.848 .54" transform="translate(524.25 .19)"/>
    <polygon stroke="#000" points="150.848 8.16 .988 8.16 .988 .54 150.848 .54" transform="translate(524.25 .19)" id="binary_sensor.dining_room_window"/>
  </g>
</svg>
